<svg width="149" height="58" viewBox="0 0 149 58" fill="none" xmlns="http://www.w3.org/2000/svg">
<g clip-path="url(#clip0_1_402)">
<path d="M3.64484 22.3848C11.2613 18.4795 18.1656 18.5652 26.6255 19.6271C26.6227 17.8629 26.6143 15.3536 26.6115 13.5865C20.1625 15.5962 15.3279 16.8694 8.26443 16.9322C11.8813 16.5411 24.4414 14.2945 26.282 8.86186C26.5082 8.19099 26.6255 -0.201979 26.6255 -0.493164C26.6227 -0.493164 0.0111719 -0.493164 0.0111719 -0.493164C0.0111719 0.848569 0.0167579 1.69358 0 3.03245C12.9231 6.31542 19.8693 2.5186 22.2014 1.43379C10.6385 10.5462 0.120098 6.32113 0.120098 6.32113C0.120098 6.32113 -0.00837895 10.9515 0.0446877 11.3969C2.9829 12.0192 6.64171 11.5339 9.5129 10.7974C12.9706 9.90955 17.1405 8.11962 19.9447 5.80727C19.7212 5.98998 18.2829 9.34431 14.9257 10.8887C13.3086 11.6338 11.6858 12.3675 9.99608 12.9213C8.23092 13.5008 6.47413 14.1032 4.72852 14.7369C0.731761 16.1843 0.0139649 17.2006 0.0139649 17.2006C0.0139649 17.2006 0.0111719 24.1919 0.0111719 25.8191C8.88168 25.8191 17.7522 25.8191 26.6255 25.8191C26.6255 24.9141 26.6227 24.0092 26.6199 23.1042C22.7768 21.3257 18.456 20.8176 14.2442 21.0574C10.0324 21.2943 7.74494 21.3543 3.64763 22.3848H3.64484Z" fill="#F8AC17"/>
<path d="M34.2958 25.8766V20.6067L49.5454 8.55963L54.7404 4.79421H34.2958V-0.478516H62.4015V4.79136L47.1882 16.8384L41.9569 20.6038H63.3204V25.8737H34.293L34.2958 25.8766Z" fill="white"/>
<path d="M71.2772 17.9346C72.1235 20.1185 74.6288 21.209 79.712 21.209C84.502 21.209 89.0322 20.2298 90.0265 19.9301L91.0571 24.8631C89.7667 25.3513 85.2365 26.4446 79.8963 26.4446C70.1349 26.4446 65.3086 22.7934 65.3086 16.1276C65.3086 10.3296 69.5064 5.54785 78.2373 5.54785C86.9682 5.54785 93.3781 9.65299 90.761 17.9346H71.2744H71.2772ZM71.1655 14.1692H85.2002C85.7532 12.0224 83.1753 10.6664 78.5334 10.6664C73.8914 10.6664 71.9754 11.9454 71.2772 13.8295L71.1655 14.1692Z" fill="white"/>
<path d="M99.6776 17.9346C100.524 20.1185 103.029 21.209 108.112 21.209C112.902 21.209 117.433 20.2298 118.427 19.9301L119.457 24.8631C118.167 25.3513 113.637 26.4446 108.297 26.4446C98.5353 26.4446 93.709 22.7934 93.709 16.1276C93.709 10.3296 97.9068 5.54785 106.638 5.54785C115.369 5.54785 121.778 9.65299 119.161 17.9346H99.6748H99.6776ZM99.5659 14.1692H113.601C114.154 12.0224 111.576 10.6664 106.934 10.6664C102.292 10.6664 100.376 11.9454 99.6776 13.8295L99.5659 14.1692Z" fill="white"/>
<path d="M143.213 25.8765V15.8992C143.213 12.9616 141.887 10.7778 136.289 10.7778C133.491 10.7778 131.094 11.343 128.369 11.9454V25.8765H122.844V6.37573L128.184 5.81049L128.332 7.35491L128.369 7.39202C130.983 6.26154 133.379 5.54785 136.84 5.54785C145.422 5.54785 148.738 9.95273 148.738 15.8649V25.8794H143.213V25.8765Z" fill="white"/>
<path d="M13.0209 43.4326L11.2641 38.3483L10.253 35.0768L9.24198 38.3483L7.48519 43.4326H4.79834L0 31.5654H2.68685L4.74248 36.6497L6.06915 40.261L7.18076 36.6497L8.93754 31.5654H11.5574L13.3141 36.6497L14.4258 40.261L15.7524 36.6497L17.8081 31.5654H20.4949L15.7021 43.4326H13.0153H13.0209Z" fill="white"/>
<path d="M22.5267 39.8555C22.9093 40.8376 24.0349 41.3314 26.3251 41.3314C28.4813 41.3314 30.5202 40.8918 30.9699 40.7548L31.4335 42.9758C30.8526 43.1956 28.8137 43.6866 26.4089 43.6866C22.0128 43.6866 19.8398 42.0423 19.8398 39.0419C19.8398 36.4298 21.7307 34.2773 25.6604 34.2773C29.5901 34.2773 32.4781 36.1244 31.2994 39.8555H22.5267ZM22.4764 38.1598H28.7941C29.0427 37.1949 27.8808 36.584 25.7917 36.584C23.7025 36.584 22.8395 37.1606 22.5239 38.0085L22.4736 38.1598H22.4764Z" fill="white"/>
<path d="M33.2266 31.5656L35.7151 31.3115V34.1092L35.6984 35.0941L35.7151 35.1112C36.8937 34.6031 38.2204 34.2805 39.7789 34.2805C43.6444 34.2805 45.3844 36.2645 45.3844 38.9251C45.3844 41.5858 43.4768 43.6897 40.128 43.6897C37.74 43.6897 36.1313 42.6734 35.6006 42.131L35.5838 42.1482L35.4191 43.4357H33.2294V31.5684L33.2266 31.5656ZM35.7151 37.1609V39.7873C35.8157 40.3982 37.754 41.3288 39.8124 41.3288C41.8708 41.3288 42.8484 40.3297 42.8484 38.9394C42.8484 37.5492 42.0524 36.6328 39.5303 36.6328C38.2707 36.6328 36.944 36.8869 35.7151 37.1581V37.1609Z" fill="white"/>
<path d="M53.5098 42.5677L54.1885 40.2954C56.4284 40.9748 58.417 41.3288 60.8721 41.3288C61.6346 41.3288 64.785 41.2945 64.785 39.8871C64.785 39.0393 63.6567 38.9708 60.9056 38.8194C57.5708 38.6339 53.9399 38.4312 53.9399 35.1739C53.9399 31.9167 57.554 31.3086 60.4755 31.3086C62.2993 31.3086 64.3577 31.5455 66.4133 32.0023L65.8994 34.3261C64.1426 33.9378 62.3328 33.6809 60.0621 33.6809C59.4644 33.6809 56.4787 33.698 56.4787 35.0369C56.4787 36.1902 58.7019 36.2901 61.0229 36.3758C64.2739 36.51 67.3266 36.8668 67.3266 39.7672C67.3266 43.0902 63.3131 43.6839 60.428 43.6839C58.2886 43.6839 55.8503 43.3614 53.5126 42.5649L53.5098 42.5677Z" fill="white"/>
<path d="M74.4616 34.2773C78.3104 34.2773 80.433 36.2443 80.433 38.9734C80.433 41.7026 78.3104 43.6866 74.4616 43.6866C70.6129 43.6866 68.4902 41.7026 68.4902 38.9734C68.4902 36.2443 70.6129 34.2773 74.4616 34.2773ZM74.4616 41.3286C76.7491 41.3286 77.8942 40.3294 77.8942 38.9734C77.8942 37.6174 76.7491 36.6354 74.4616 36.6354C72.1742 36.6354 71.0291 37.6174 71.0291 38.9734C71.0291 40.3294 72.1742 41.3286 74.4616 41.3286Z" fill="white"/>
<path d="M81.7598 31.5656L84.2483 31.3115V43.4328H81.7598V31.5656Z" fill="white"/>
<path d="M85.9062 34.5312H88.3948V39.0246C88.3948 40.3978 88.9925 41.3313 91.5118 41.3313C93.5674 41.3313 94.9779 40.3978 95.0784 39.7897V34.5341H97.5669V43.4352H95.3773L95.2125 42.1477L95.1957 42.1306C94.531 42.7929 93.1708 43.6893 90.9001 43.6893C87.219 43.6893 85.909 41.7052 85.909 39.0446V34.5341L85.9062 34.5312Z" fill="white"/>
<path d="M102.212 34.5321H104.748V36.6332H102.212V40.5499C102.212 41.3635 102.544 41.5662 103.34 41.5662C103.706 41.5662 104.17 41.5148 104.751 41.4806V43.4303C103.955 43.5817 103.243 43.6844 102.628 43.6844C100.771 43.6844 99.7263 42.8708 99.7263 40.547V36.6303H98.5645V34.5292H99.7263V32.3254L102.215 32.0713V34.5292L102.212 34.5321Z" fill="white"/>
<path d="M106.41 33.4637V31.4282H108.899V33.4637H106.41ZM106.41 43.4325V34.6512L108.899 34.3972V43.4325H106.41Z" fill="white"/>
<path d="M116.526 34.2773C120.375 34.2773 122.497 36.2443 122.497 38.9734C122.497 41.7026 120.375 43.6866 116.526 43.6866C112.677 43.6866 110.555 41.7026 110.555 38.9734C110.555 36.2443 112.677 34.2773 116.526 34.2773ZM116.526 41.3286C118.814 41.3286 119.959 40.3294 119.959 38.9734C119.959 37.6174 118.814 36.6354 116.526 36.6354C114.239 36.6354 113.094 37.6174 113.094 38.9734C113.094 40.3294 114.239 41.3286 116.526 41.3286Z" fill="white"/>
<path d="M132.996 43.4325V38.9391C132.996 37.6173 132.399 36.6324 129.879 36.6324C128.62 36.6324 127.542 36.8865 126.313 37.1577V43.4296H123.824V34.6484L126.229 34.3943L126.296 35.088L126.313 35.1051C127.491 34.597 128.569 34.2744 130.128 34.2744C133.993 34.2744 135.485 36.2585 135.485 38.9191V43.4296H132.996V43.4325Z" fill="white"/>
<path d="M137.311 40.6177C139.666 41.143 141.026 41.3286 142.735 41.3286C143.632 41.3286 146.201 41.2943 146.201 40.6177C146.201 40.0925 144.66 40.1439 142.85 40.1096C140.247 40.0411 137.077 39.787 137.077 37.2948C137.077 34.4458 140.691 34.2773 142.665 34.2773C144.274 34.2773 146.048 34.4458 147.972 34.7855L147.573 37.1235C145.45 36.7496 144.174 36.6496 142.216 36.6496C140.607 36.6496 139.613 36.7867 139.613 37.3119C139.613 37.9057 141.057 37.9057 142.78 37.9229C145.417 37.9571 148.735 38.0742 148.735 40.6006C148.735 43.5496 144.174 43.6866 142.448 43.6866C140.473 43.6866 138.982 43.501 136.809 42.9415L137.306 40.6177H137.311Z" fill="white"/>
<path d="M0 55.8999V50.1904H6.05798V51.3323H1.19819V52.3914H5.58038V53.5333H1.19819V54.758H6.21718V55.8999H0Z" fill="white"/>
<path d="M6.93359 50.1901L8.13178 50.0674V55.8996H6.93359V50.1901Z" fill="white"/>
<path d="M10.0627 54.1786C10.247 54.6525 10.7889 54.8894 11.8893 54.8894C12.9255 54.8894 13.9086 54.6782 14.1237 54.6125L14.3471 55.6802C14.0678 55.7858 13.0875 56.0228 11.9284 56.0228C9.81411 56.0228 8.76953 55.232 8.76953 53.7875C8.76953 52.5314 9.68004 51.4951 11.5709 51.4951C13.4617 51.4951 14.8499 52.3829 14.2829 54.1786H10.0627ZM10.0375 53.3621H13.0791C13.1992 52.8968 12.6406 52.6028 11.6351 52.6028C10.6297 52.6028 10.2135 52.8797 10.0627 53.2879L10.0375 53.3621Z" fill="white"/>
<path d="M20.7008 51.6172L18.3296 55.8993H17.0197L14.6484 51.6172H16.0449L17.2096 53.861L17.6732 54.8316L18.1369 53.861L19.3015 51.6172H20.698H20.7008Z" fill="white"/>
<path d="M26.9446 55.9C26.5369 55.9828 26.2185 56.0228 25.9643 56.0228C25.0147 56.0228 24.9672 55.5346 24.9421 55.272C24.5511 55.7373 23.6266 56.0228 22.892 56.0228C21.7357 56.0228 20.9453 55.4775 20.9453 54.4726C20.9453 53.4677 21.9675 53.1423 22.987 53.1423C23.6964 53.1423 24.4784 53.2822 24.8778 53.4107C24.8387 52.9796 24.4393 52.637 23.3445 52.637C22.4675 52.637 21.7637 52.8083 21.5821 52.874L21.1995 51.8063C21.4397 51.7178 22.325 51.4951 23.3473 51.4951C25.3582 51.4951 26.0844 52.3772 26.0844 53.5505V54.6039C26.0844 54.7581 26.1403 54.898 26.4754 54.898C26.5955 54.898 26.7463 54.8809 26.9474 54.8409V55.9H26.9446ZM23.0987 54.9865C23.864 54.9865 24.8471 54.6039 24.8862 54.1129V53.9588H22.9227C22.5401 53.9588 22.1658 54.0558 22.1658 54.3898C22.1658 54.8152 22.5876 54.9865 23.0987 54.9865Z" fill="white"/>
<path d="M28.8605 51.6174H30.0811V52.628H28.8605V54.5121C28.8605 54.9032 29.0197 55.0003 29.4024 55.0003C29.5783 55.0003 29.8018 54.9746 30.0811 54.9603V55.8995C29.6984 55.9738 29.3549 56.0223 29.0588 56.0223C28.1651 56.0223 27.6624 55.6312 27.6624 54.5121V52.628H27.1038V51.6174H27.6624V50.5583L28.8605 50.4355V51.6174Z" fill="white"/>
<path d="M31.8517 54.1786C32.0361 54.6525 32.5779 54.8894 33.6784 54.8894C34.7146 54.8894 35.6977 54.6782 35.9127 54.6125L36.1362 55.6802C35.8569 55.7858 34.8765 56.0228 33.7175 56.0228C31.6032 56.0228 30.5586 55.232 30.5586 53.7875C30.5586 52.5314 31.4691 51.4951 33.36 51.4951C35.2508 51.4951 36.6389 52.3829 36.0719 54.1786H31.8517ZM31.8266 53.3621H34.8682C34.9883 52.8968 34.4297 52.6028 33.4242 52.6028C32.4187 52.6028 32.0026 52.8797 31.8517 53.2879L31.8266 53.3621Z" fill="white"/>
<path d="M47.711 50.1904L44.3901 54.1957V55.8999H43.1919V54.1957L39.8711 50.1904H41.3877L42.5607 51.6178L43.7896 53.2079L45.0269 51.6178L46.1916 50.1904H47.7082H47.711Z" fill="white"/>
<path d="M50.1044 51.4951C51.9562 51.4951 52.9784 52.44 52.9784 53.7532C52.9784 55.0664 51.9562 56.0199 50.1044 56.0199C48.2527 56.0199 47.2305 55.0664 47.2305 53.7532C47.2305 52.44 48.2527 51.4951 50.1044 51.4951ZM50.1044 54.8894C51.2049 54.8894 51.7551 54.407 51.7551 53.7561C51.7551 53.1052 51.2049 52.6313 50.1044 52.6313C49.004 52.6313 48.4538 53.1052 48.4538 53.7561C48.4538 54.407 49.004 54.8894 50.1044 54.8894Z" fill="white"/>
<path d="M53.6172 51.6172H54.8154V53.7782C54.8154 54.4377 55.1031 54.8887 56.3152 54.8887C57.3039 54.8887 57.9826 54.4405 58.0301 54.1465V51.6172H59.2283V55.8993H58.1753L58.0943 55.2798L58.086 55.2713C57.7676 55.5881 57.1112 56.0221 56.0192 56.0221C54.2484 56.0221 53.6172 55.0686 53.6172 53.7868V51.6172Z" fill="white"/>
<path d="M60.0262 51.675L61.1825 51.5522L61.2132 52.1803L61.2216 52.1888C61.8836 51.6179 62.6265 51.4951 63.375 51.4951L63.3275 52.6941C62.6405 52.6199 61.6769 52.7198 61.2216 53.1766V55.9H60.0234V51.675H60.0262Z" fill="white"/>
<path d="M67.5273 55.8999V50.1904H70.2645C73.1692 50.1904 74.3813 51.3495 74.3813 53.0452C74.3813 54.7409 73.1692 55.8999 70.2645 55.8999H67.5273ZM68.7255 51.3323V54.758H70.2645C72.3704 54.758 73.1608 54.1214 73.1608 53.0452C73.1608 51.9689 72.3704 51.3323 70.2645 51.3323H68.7255Z" fill="white"/>
<path d="M75.2617 51.1032V50.124H76.4599V51.1032H75.2617ZM75.2617 55.8992V51.6742L76.4599 51.5514V55.8992H75.2617Z" fill="white"/>
<path d="M80.0414 51.495C80.3598 51.495 80.6558 51.5264 80.9351 51.5778C81.2954 51.4379 82.1557 51.2666 82.9461 51.2666L83.0103 51.9831H81.9965C82.3875 52.2515 82.6277 52.6369 82.6277 53.125C82.6277 54.2013 81.5356 54.6352 80.0414 54.6352C79.6252 54.6352 79.2342 54.6038 78.899 54.5296C78.7398 54.6695 78.4522 55.0177 78.5639 55.2889C79.0834 55.1434 80.1531 54.8978 81.1027 54.8978C82.0523 54.8978 82.9628 55.1576 82.9628 56.0569C82.9628 57.4443 80.8569 57.5099 80.033 57.5099C78.4382 57.5099 77.4718 57.2644 77.1758 57.1674L77.3992 56.0997C77.5836 56.1397 78.6672 56.3852 80.2788 56.3852C80.9882 56.3852 81.7228 56.3452 81.7228 56.0997C81.7228 55.8713 81.0915 55.8057 80.3263 55.8057C79.6476 55.8057 78.8572 55.8542 78.2986 55.9113C77.9718 55.8856 77.5947 55.6429 77.5724 55.1605C77.6199 54.9064 77.8265 54.5895 78.3153 54.3526C77.7819 54.1156 77.4523 53.716 77.4523 53.1279C77.4523 52.0517 78.5946 51.4978 80.0386 51.4978L80.0414 51.495ZM80.0414 53.6246C80.815 53.6246 81.4071 53.4705 81.4071 53.1279C81.4071 52.7853 80.8178 52.6397 80.0414 52.6397C79.2649 52.6397 78.6756 52.8025 78.6756 53.1279C78.6756 53.4705 79.2649 53.6246 80.0414 53.6246Z" fill="white"/>
<path d="M83.625 51.1032V50.124H84.8232V51.1032H83.625ZM83.625 55.8992V51.6742L84.8232 51.5514V55.8992H83.625Z" fill="white"/>
<path d="M87.2177 51.6174H88.4383V52.628H87.2177V54.5121C87.2177 54.9032 87.3769 55.0003 87.7596 55.0003C87.9355 55.0003 88.159 54.9746 88.4383 54.9603V55.8995C88.0556 55.9738 87.7121 56.0223 87.416 56.0223C86.5223 56.0223 86.0195 55.6312 86.0195 54.5121V52.628H85.4609V51.6174H86.0195V50.5583L87.2177 50.4355V51.6174Z" fill="white"/>
<path d="M95.0794 55.9C94.6716 55.9828 94.3532 56.0228 94.0991 56.0228C93.1495 56.0228 93.102 55.5346 93.0768 55.272C92.6858 55.7373 91.7613 56.0228 91.0268 56.0228C89.8705 56.0228 89.0801 55.4775 89.0801 54.4726C89.0801 53.4677 90.1023 53.1423 91.1217 53.1423C91.8312 53.1423 92.6132 53.2822 93.0126 53.4107C92.9735 52.9796 92.5741 52.637 91.4792 52.637C90.6023 52.637 89.8984 52.8083 89.7169 52.874L89.3342 51.8063C89.5744 51.7178 90.4598 51.4951 91.482 51.4951C93.493 51.4951 94.2192 52.3772 94.2192 53.5505V54.6039C94.2192 54.7581 94.275 54.898 94.6102 54.898C94.7303 54.898 94.8811 54.8809 95.0822 54.8409V55.9H95.0794ZM91.2335 54.9865C91.9987 54.9865 92.9819 54.6039 93.021 54.1129V53.9588H91.0575C90.6749 53.9588 90.3006 54.0558 90.3006 54.3898C90.3006 54.8152 90.7223 54.9865 91.2335 54.9865Z" fill="white"/>
<path d="M95.7151 50.1901L96.9133 50.0674V55.8996H95.7151V50.1901Z" fill="white"/>
<path d="M101.143 55.8999V50.1904H105.325C106.609 50.1904 107.726 50.6957 107.726 52.2059C107.726 53.7161 106.609 54.2299 105.325 54.2299H102.339V55.9028H101.141L101.143 55.8999ZM102.342 51.3323V53.0851H105.406C106.051 53.0851 106.506 52.8653 106.506 52.203C106.506 51.5407 106.051 51.3295 105.406 51.3295H102.342V51.3323Z" fill="white"/>
<path d="M108.368 51.675L109.524 51.5522L109.555 52.1803L109.563 52.1888C110.225 51.6179 110.968 51.4951 111.717 51.4951L111.669 52.6941C110.982 52.6199 110.019 52.7198 109.563 53.1766V55.9H108.365V51.675H108.368Z" fill="white"/>
<path d="M113.41 54.1786C113.595 54.6525 114.137 54.8894 115.237 54.8894C116.273 54.8894 117.256 54.6782 117.471 54.6125L117.695 55.6802C117.415 55.7858 116.435 56.0228 115.276 56.0228C113.162 56.0228 112.117 55.232 112.117 53.7875C112.117 52.5314 113.028 51.4951 114.919 51.4951C116.809 51.4951 118.198 52.3829 117.631 54.1786H113.41ZM113.385 53.3621H116.427C116.547 52.8968 115.988 52.6028 114.983 52.6028C113.977 52.6028 113.561 52.8797 113.41 53.2879L113.385 53.3621Z" fill="white"/>
<path d="M118.639 54.5468C119.773 54.8009 120.426 54.8894 121.247 54.8894C121.677 54.8894 122.915 54.8723 122.915 54.5468C122.915 54.2928 122.172 54.3185 121.303 54.3013C120.049 54.2699 118.527 54.1472 118.527 52.9482C118.527 51.5779 120.267 51.4951 121.217 51.4951C121.99 51.4951 122.845 51.5779 123.769 51.7406L123.577 52.8654C122.554 52.6855 121.94 52.637 120.999 52.637C120.225 52.637 119.745 52.7027 119.745 52.9567C119.745 53.2422 120.44 53.2422 121.27 53.2508C122.538 53.2679 124.135 53.325 124.135 54.5383C124.135 55.9571 121.94 56.0228 121.11 56.0228C120.161 56.0228 119.443 55.9343 118.398 55.6631L118.639 54.5468Z" fill="white"/>
<path d="M125.906 54.1786C126.091 54.6525 126.633 54.8894 127.733 54.8894C128.769 54.8894 129.752 54.6782 129.967 54.6125L130.191 55.6802C129.912 55.7858 128.931 56.0228 127.772 56.0228C125.658 56.0228 124.613 55.232 124.613 53.7875C124.613 52.5314 125.524 51.4951 127.415 51.4951C129.305 51.4951 130.694 52.3829 130.127 54.1786H125.906ZM125.881 53.3621H128.923C129.043 52.8968 128.484 52.6028 127.479 52.6028C126.473 52.6028 126.057 52.8797 125.906 53.2879L125.881 53.3621Z" fill="white"/>
<path d="M135.472 55.9V53.739C135.472 53.1023 135.184 52.6285 133.972 52.6285C133.366 52.6285 132.846 52.7512 132.257 52.8825V55.9H131.059V51.675L132.215 51.5522L132.246 51.8862L132.254 51.8948C132.821 51.6493 133.34 51.4951 134.089 51.4951C135.949 51.4951 136.667 52.4486 136.667 53.7304V55.9H135.469H135.472Z" fill="white"/>
<path d="M142.883 55.6803C142.604 55.7859 141.797 56.0228 140.624 56.0228C138.294 56.0228 137.303 55.0693 137.303 53.7562C137.303 52.443 138.291 51.498 140.624 51.498C141.797 51.498 142.604 51.735 142.883 51.8406L142.66 52.9083C142.445 52.8426 141.615 52.6314 140.632 52.6314C139.012 52.6314 138.526 53.1053 138.526 53.7562C138.526 54.407 139.012 54.8895 140.632 54.8895C141.612 54.8895 142.445 54.6782 142.66 54.6126L142.883 55.6803Z" fill="white"/>
<path d="M144.656 54.1786C144.841 54.6525 145.383 54.8894 146.483 54.8894C147.519 54.8894 148.502 54.6782 148.717 54.6125L148.941 55.6802C148.662 55.7858 147.681 56.0228 146.522 56.0228C144.408 56.0228 143.363 55.232 143.363 53.7875C143.363 52.5314 144.274 51.4951 146.165 51.4951C148.055 51.4951 149.444 52.3829 148.877 54.1786H144.656ZM144.631 53.3621H147.673C147.793 52.8968 147.234 52.6028 146.229 52.6028C145.223 52.6028 144.807 52.8797 144.656 53.2879L144.631 53.3621Z" fill="white"/>
</g>
<defs>
<clipPath id="clip0_1_402">
<rect width="149" height="58" fill="white"/>
</clipPath>
</defs>
</svg>
